<?xml version="1.0" encoding="UTF-8"?>
<!DOCTYPE svg PUBLIC "-//W3C//DTD SVG 1.1//EN" "http://www.w3.org/Graphics/SVG/1.1/DTD/svg11.dtd">
<!-- Creator: CorelDRAW X7 -->
<svg xmlns="http://www.w3.org/2000/svg" xml:space="preserve" width="546px" height="109px" version="1.1" shape-rendering="geometricPrecision" text-rendering="geometricPrecision" image-rendering="optimizeQuality" fill-rule="evenodd" clip-rule="evenodd"
viewBox="0 0 850 170"
 xmlns:xlink="http://www.w3.org/1999/xlink">
 <g id="Слой_x0020_1">
  <metadata id="CorelCorpID_0Corel-Layer"/>
  <path fill="#304660" fill-rule="nonzero" d="M31 72c6,0 11,-1 15,-3l0 -16c-4,3 -9,4 -14,4 -4,0 -8,-1 -11,-4 -2,-2 -4,-5 -4,-9 0,-4 2,-7 4,-9 3,-3 6,-4 10,-4 5,0 9,1 14,3l0 -15c-4,-2 -9,-3 -14,-3 -9,0 -16,2 -22,8 -6,5 -9,12 -9,20 0,8 3,15 9,20 6,6 13,8 22,8l0 0zm65 -15l-26 0 0 -8 20 0 0 -13 -20 0 0 -5 25 0 0 -14 -42 0 0 54 43 0 0 -14zm23 -27l6 0c3,0 6,2 6,5 0,3 -3,5 -6,5l-6 0 0 -10zm-17 41l17 0 0 -19 8 0c6,0 11,-1 15,-5 4,-3 6,-7 6,-13 0,-5 -2,-9 -6,-12 -4,-4 -9,-5 -15,-5l-25 0 0 54zm76 -41c2,0 4,1 4,4 0,1 -2,3 -4,3l-8 0 0 -7 8 0zm0 19c3,0 5,2 5,4 0,3 -2,5 -5,5l-8 0 0 -9 8 0zm4 22c6,0 10,-1 14,-4 4,-3 6,-7 6,-12 0,-4 -2,-7 -4,-9 -2,-3 -4,-5 -7,-5 2,-1 3,-2 5,-4 1,-2 2,-4 2,-6 0,-5 -2,-8 -5,-11 -3,-2 -8,-3 -13,-3l-27 0 0 54 29 0zm42 -54l-16 0 0 54 16 0 0 -54zm39 55c5,0 10,-1 14,-3l0 -16c-4,3 -8,4 -14,4 -4,0 -7,-1 -10,-4 -3,-2 -4,-5 -4,-9 0,-4 1,-7 4,-9 2,-3 6,-4 10,-4 4,0 9,1 13,3l0 -15c-4,-2 -8,-3 -14,-3 -9,0 -16,2 -22,8 -6,5 -9,12 -9,20 0,8 3,15 9,20 6,6 14,8 23,8l0 0zm38 -22l16 0 0 21 17 0 0 -54 -17 0 0 18 -16 0 0 -18 -17 0 0 54 17 0 0 -21zm76 -6l0 27 16 0 0 -54 -13 0 -21 27 0 -27 -17 0 0 54 15 0 20 -27zm50 -30c4,0 8,-1 11,-4 3,-2 4,-6 4,-10l-10 0c-1,3 -2,4 -5,4 -3,0 -4,-1 -4,-4l-11 0c0,4 2,8 4,10 3,3 7,4 11,4zm10 30l0 27 16 0 0 -54 -14 0 -21 27 0 -27 -16 0 0 54 14 0 21 -27zm99 13l-7 0 0 -40 -17 0 0 40 -15 0 0 -40 -17 0 0 54 40 0 0 10 16 0 0 -24zm49 0l-27 0 0 -8 20 0 0 -13 -20 0 0 -5 26 0 0 -14 -43 0 0 54 44 0 0 -14zm23 -7l16 0 0 21 17 0 0 -54 -17 0 0 18 -16 0 0 -18 -17 0 0 54 17 0 0 -21zm54 -19l0 40 17 0 0 -40 16 0 0 -14 -48 0 0 14 15 0zm55 -1l6 0c4,0 6,2 6,5 0,3 -2,5 -6,5l-6 0 0 -10zm-17 41l17 0 0 -19 8 0c7,0 12,-1 15,-5 4,-3 6,-7 6,-13 0,-5 -2,-9 -6,-12 -3,-4 -8,-5 -15,-5l-25 0 0 54zm-682 58l16 0 0 40 17 0 0 -54 -49 0 0 54 16 0 0 -40zm40 13c0,7 2,14 8,20 5,5 12,8 21,8 8,0 15,-3 21,-8 5,-6 8,-12 8,-20 0,-8 -3,-15 -8,-20 -6,-6 -13,-9 -21,-9 -9,0 -16,3 -21,9 -6,5 -8,12 -8,20zm20 9c-2,-2 -3,-5 -3,-9 0,-4 1,-7 3,-10 2,-2 5,-3 9,-3 3,0 6,1 8,3 3,3 4,6 4,10 0,4 -1,7 -4,9 -2,3 -5,4 -8,4 -4,0 -7,-1 -9,-4l0 0zm68 -7c4,0 7,3 7,6 0,3 -3,5 -7,5l-7 0 0 -11 7 0zm1 25c7,0 12,-2 16,-5 4,-4 6,-8 6,-13 0,-6 -2,-10 -6,-13 -4,-4 -9,-6 -16,-6l-8 0 0 -4 25 0 0 -13 -41 0 0 54 24 0zm38 1c2,0 5,-1 9,-2 3,-2 7,-6 10,-11l19 -42 -17 0 -9 20 -9 -20 -18 0 19 36c-1,3 -4,4 -7,4 -3,0 -6,0 -8,-1l0 14c3,1 6,2 11,2zm55 -41l0 40 17 0 0 -40 15 0 0 -14 -48 0 0 14 16 0zm34 13c0,7 2,14 8,20 5,5 12,8 21,8 8,0 15,-3 21,-8 5,-6 8,-12 8,-20 0,-8 -3,-15 -8,-20 -6,-6 -13,-9 -21,-9 -9,0 -16,3 -21,9 -6,5 -8,12 -8,20zm20 9c-2,-2 -3,-5 -3,-9 0,-4 1,-7 3,-10 2,-2 5,-3 9,-3 3,0 6,1 8,3 3,3 4,6 4,10 0,4 -1,7 -4,9 -2,3 -5,4 -8,4 -4,0 -7,-1 -9,-4l0 0zm70 -24c2,0 4,2 4,4 0,2 -2,4 -4,4l-9 0 0 -8 9 0zm0 19c3,0 5,2 5,5 0,3 -2,4 -5,4l-9 0 0 -9 9 0zm3 23c6,0 11,-2 15,-4 3,-3 5,-7 5,-12 0,-4 -1,-7 -3,-10 -2,-2 -5,-4 -7,-4 1,-1 3,-2 4,-4 2,-2 3,-4 3,-7 0,-4 -2,-8 -5,-10 -4,-2 -8,-3 -13,-3l-27 0 0 54 28 0zm25 -27c0,7 2,14 8,20 5,5 12,8 21,8 8,0 15,-3 21,-8 5,-6 8,-12 8,-20 0,-8 -3,-15 -8,-20 -6,-6 -13,-9 -21,-9 -9,0 -16,3 -21,9 -6,5 -8,12 -8,20zm20 9c-2,-2 -3,-5 -3,-9 0,-4 1,-7 3,-10 2,-2 5,-3 9,-3 3,0 6,1 8,3 3,3 4,6 4,10 0,4 -1,7 -4,9 -2,3 -5,4 -8,4 -4,0 -7,-1 -9,-4l0 0zm62 -36l-17 0 0 54 17 0 0 -54zm-18 -4c4,0 8,-3 8,-7 0,-5 -4,-8 -8,-8 -4,0 -8,4 -8,8 0,4 4,7 8,7zm11 -7c0,4 3,7 7,7 5,0 8,-3 8,-7 0,-2 -1,-4 -2,-6 -2,-1 -4,-2 -6,-2 -4,0 -7,4 -7,8zm44 25l0 40 17 0 0 -40 16 0 0 -14 -48 0 0 14 15 0zm82 26l-27 0 0 -8 21 0 0 -13 -21 0 0 -5 26 0 0 -14 -42 0 0 54 43 0 0 -14zm21 -15l-21 29 20 0 10 -17 11 17 20 0 -21 -29 18 -25 -19 0 -8 12 -8 -12 -20 0 18 25zm59 7l17 0 0 22 16 0 0 -54 -16 0 0 18 -17 0 0 -18 -17 0 0 54 17 0 0 -22zm59 -32l-17 0 0 54 17 0 0 -54zm25 30l18 24 21 0 -23 -29 19 -25 -20 0 -15 20 0 -20 -17 0 0 54 17 0 0 -24zm77 -3l0 27 16 0 0 -54 -14 0 -21 27 0 -27 -16 0 0 54 14 0 21 -27z"/>
 </g>
</svg>
