<?xml version="1.0" encoding="UTF-8"?>
<!DOCTYPE svg PUBLIC "-//W3C//DTD SVG 1.1//EN" "http://www.w3.org/Graphics/SVG/1.1/DTD/svg11.dtd">
<!-- Creator: CorelDRAW X7 -->
<svg xmlns="http://www.w3.org/2000/svg" xml:space="preserve" width="760px" height="49px" version="1.1" shape-rendering="geometricPrecision" text-rendering="geometricPrecision" image-rendering="optimizeQuality" fill-rule="evenodd" clip-rule="evenodd"
viewBox="0 0 1813 117"
 xmlns:xlink="http://www.w3.org/1999/xlink">
 <g id="Слой_x0020_1">
  <metadata id="CorelCorpID_0Corel-Layer"/>
  <path fill="#F35841" fill-rule="nonzero" d="M22 63l10 14 10 0 9 -14 0 30 22 0 0 -62 -24 0 -13 19 -12 -19 -24 0 0 62 22 0 0 -30zm74 2c-4,0 -7,2 -10,4 -3,3 -4,7 -4,11 0,4 1,7 4,10 3,3 6,4 10,4 4,0 8,-1 11,-4 2,-3 4,-6 4,-10 0,-4 -2,-8 -4,-11 -3,-2 -7,-4 -11,-4zm122 -56l-25 0 0 33c-2,1 -6,2 -10,2 -6,0 -10,-3 -10,-10l0 -25 -26 0 0 29c0,17 12,28 32,28 6,0 10,0 14,-2l0 29 25 0 0 -84zm32 46c1,-5 4,-9 9,-9 4,0 8,4 8,9l-17 0 0 0zm11 39c12,0 20,-2 26,-6l0 -18c-6,3 -13,5 -20,5 -7,0 -14,-3 -16,-8l39 0 0 -5c0,-10 -3,-18 -9,-24 -5,-6 -12,-8 -21,-8 -10,0 -18,3 -24,9 -6,6 -9,14 -9,23 0,10 3,18 10,24 7,5 15,8 24,8zm63 -39c1,-3 5,-5 9,-5 6,0 10,6 10,12 0,6 -4,11 -10,11 -5,0 -8,-1 -9,-4l0 -14zm0 31c4,5 9,8 17,8 7,0 14,-3 19,-9 5,-6 8,-14 8,-23 0,-9 -3,-17 -8,-23 -5,-6 -12,-9 -19,-9 -8,0 -13,2 -17,8l0 -7 -25 0 0 85 25 0 0 -30zm77 -15l14 0 0 22 25 0 0 -62 -25 0 0 20 -14 0 0 -20 -25 0 0 62 25 0 0 -22zm64 -43c8,0 14,-6 14,-14 0,-4 -2,-7 -4,-10 -3,-3 -6,-4 -10,-4 -4,0 -7,1 -10,4 -3,3 -4,6 -4,10 0,4 1,7 4,10 3,3 6,4 10,4zm12 3l-25 0 0 62 25 0 0 -62zm37 36l8 0c4,0 5,2 5,5 0,3 -1,5 -5,5l-8 0 0 -10zm6 -21c3,0 5,2 5,5 0,3 -1,4 -5,4l-6 0 0 -9 6 0zm21 14c4,-2 8,-7 8,-13 0,-8 -7,-16 -21,-16l-38 0 0 62 39 0c15,0 24,-7 24,-18 0,-8 -6,-13 -12,-15zm94 13l-9 0 0 -42 -25 0 0 42 -14 0 0 -42 -25 0 0 62 48 0 0 13 25 0 0 -33zm21 -45c8,0 14,-6 14,-14 0,-4 -1,-7 -4,-10 -3,-3 -6,-4 -10,-4 -4,0 -7,1 -10,4 -3,3 -4,6 -4,10 0,4 1,7 4,10 3,3 6,4 10,4zm12 3l-25 0 0 62 25 0 0 -62zm42 38l-26 0 -11 42 20 0 17 -42zm62 -2l8 0c4,0 5,2 5,5 0,3 -1,5 -5,5l-8 0 0 -10zm6 -21c3,0 5,2 5,5 0,3 -1,4 -5,4l-6 0 0 -9 6 0zm21 14c4,-2 8,-7 8,-13 0,-8 -7,-16 -21,-16l-38 0 0 62 39 0c15,0 24,-7 24,-18 0,-8 -6,-13 -12,-15zm33 57c13,0 21,-6 26,-18l26 -68 -26 0 -9 35 -11 -35 -27 0 26 60c-2,4 -5,5 -10,5 -4,0 -7,-1 -10,-3l0 21c3,2 8,3 15,3zm96 -24l25 0 0 -62 -59 0 0 15c0,10 -1,17 -2,21 -1,4 -3,6 -6,6 -1,0 -3,0 -4,-1l0 20c2,1 6,2 11,2 12,0 18,-7 21,-16 2,-6 2,-11 2,-19l1 -8 11 0 0 42zm48 -28c-4,0 -8,2 -11,4 -2,3 -4,7 -4,11 0,4 2,7 4,10 3,3 7,4 11,4 4,0 7,-1 10,-4 3,-3 4,-6 4,-10 0,-4 -1,-8 -4,-11 -3,-2 -6,-4 -10,-4zm111 9l-27 0c7,-2 12,-5 17,-9 5,-4 7,-8 7,-14 0,-7 -2,-12 -8,-16 -5,-4 -12,-5 -20,-5 -10,0 -19,2 -27,6l0 23c9,-5 17,-7 24,-7 4,0 6,1 6,3 0,1 -1,2 -3,3 -2,1 -2,2 -6,4 -6,3 -14,7 -24,12l0 19 61 0 0 -19zm41 -24c5,0 9,5 9,14 -2,3 -5,5 -9,5 -5,0 -9,-4 -9,-10 0,-5 3,-9 9,-9l0 0zm-7 38c6,0 11,-2 15,-6 -1,8 -9,13 -18,13 -6,0 -12,-2 -17,-5l0 22c5,3 12,5 20,5 14,0 25,-6 31,-16 6,-9 9,-20 9,-32 0,-12 -3,-22 -9,-29 -6,-7 -14,-10 -26,-10 -9,0 -16,2 -23,8 -6,6 -9,13 -9,22 0,9 3,15 8,20 5,5 11,8 19,8zm117 -33c6,0 10,3 10,8 0,5 -4,8 -10,8l-11 0 0 -16 11 0zm2 38c10,0 18,-3 24,-8 6,-5 9,-12 9,-20 0,-9 -3,-15 -9,-21 -6,-5 -14,-7 -24,-7l-13 0 0 -7 39 0 0 -21 -64 0 0 84 38 0zm63 -38c0,-5 3,-9 8,-9 4,0 8,4 8,9l-16 0 0 0zm10 39c12,0 20,-2 26,-6l0 -18c-6,3 -13,5 -20,5 -7,0 -14,-3 -16,-8l39 0 0 -5c0,-10 -3,-18 -8,-24 -6,-6 -13,-8 -22,-8 -10,0 -18,3 -24,9 -6,6 -9,14 -9,23 0,10 3,18 10,24 7,5 15,8 24,8zm63 -39c1,-3 5,-5 9,-5 6,0 10,6 10,12 0,6 -4,11 -10,11 -4,0 -8,-1 -9,-4l0 -14zm0 31c4,5 9,8 17,8 8,0 14,-3 19,-9 5,-6 8,-14 8,-23 0,-9 -3,-17 -8,-23 -5,-6 -11,-9 -19,-9 -8,0 -13,2 -17,8l0 -7 -25 0 0 85 25 0 0 -30zm72 -31c1,-5 4,-9 8,-9 5,0 8,4 8,9l-16 0 0 0zm11 39c11,0 20,-2 25,-6l0 -18c-6,3 -12,5 -20,5 -7,0 -14,-3 -16,-8l39 0 0 -5c0,-10 -2,-18 -8,-24 -6,-6 -13,-8 -22,-8 -9,0 -17,3 -24,9 -6,6 -9,14 -9,23 0,10 4,18 10,24 7,5 15,8 25,8zm60 0c11,0 18,-2 24,-6 6,-4 9,-8 9,-14 0,-4 -2,-7 -4,-10 -3,-2 -6,-4 -9,-4 6,-1 11,-6 11,-13 0,-5 -3,-9 -8,-13 -5,-3 -11,-4 -19,-4 -12,0 -20,1 -27,5l0 17c5,-3 12,-4 20,-4 6,0 8,1 8,3 0,2 -1,3 -4,3l-13 0 0 16 13 0c4,0 6,0 6,2 0,2 -4,3 -10,3 -8,0 -15,-1 -22,-4l0 18c6,4 14,5 25,5zm66 -23l14 0 0 22 25 0 0 -62 -25 0 0 20 -14 0 0 -20 -25 0 0 62 25 0 0 -22zm81 -12c-4,0 -6,-2 -6,-5 0,-3 2,-5 6,-5l5 0 0 10 -5 0zm3 16l2 0 0 18 25 0 0 -62 -34 0c-9,0 -16,2 -20,6 -4,4 -6,9 -6,15 0,8 3,14 10,18l-16 23 28 0 11 -18zm68 -6l-26 0 -11 42 21 0 16 -42zm76 -38l-22 0 -20 9 0 25 17 -7 0 35 25 0 0 -62z"/>
 </g>
</svg>
