<?xml version="1.0" encoding="UTF-8"?>
<!DOCTYPE svg PUBLIC "-//W3C//DTD SVG 1.1//EN" "http://www.w3.org/Graphics/SVG/1.1/DTD/svg11.dtd">
<!-- Creator: CorelDRAW X7 -->
<svg xmlns="http://www.w3.org/2000/svg" xml:space="preserve" width="912px" height="167px" version="1.1" shape-rendering="geometricPrecision" text-rendering="geometricPrecision" image-rendering="optimizeQuality" fill-rule="evenodd" clip-rule="evenodd"
viewBox="0 0 2409 442"
 xmlns:xlink="http://www.w3.org/1999/xlink">
 <g id="Слой_x0020_1">
  <metadata id="CorelCorpID_0Corel-Layer"/>
  <path fill="#627A94" fill-rule="nonzero" d="M25 63l10 15 11 0 10 -15 0 32 25 0 0 -68 -26 0 -15 21 -14 -21 -26 0 0 68 25 0 0 -32zm104 34c11,0 20,-4 28,-10 7,-7 11,-16 11,-26 0,-10 -4,-19 -11,-26 -8,-6 -17,-10 -28,-10 -11,0 -21,4 -28,10 -7,7 -11,16 -11,26 0,10 4,19 11,26 7,6 17,10 28,10zm-9 -27c-2,-3 -3,-5 -3,-9 0,-4 1,-6 3,-9 5,-4 13,-4 17,0 2,3 4,5 4,9 0,4 -1,6 -4,9 -4,4 -12,4 -17,0l0 0zm85 1l15 0 0 24 27 0 0 -68 -27 0 0 22 -15 0 0 -22 -28 0 0 68 28 0 0 -24zm97 -22l19 0 0 -22 -65 0 0 22 18 0 0 46 28 0 0 -46zm64 26c-2,3 -4,4 -8,4 -4,0 -7,-2 -7,-7 0,-4 3,-6 8,-6 3,0 5,1 7,2l0 7zm30 0c-2,0 -3,-1 -3,-3l0 -19c0,-8 -3,-15 -10,-20 -6,-5 -14,-8 -25,-8 -10,0 -18,2 -26,5l0 20c6,-2 13,-4 20,-4 9,0 13,4 13,10 -4,-2 -9,-3 -15,-3 -7,0 -13,1 -18,5 -5,4 -8,9 -8,16 0,7 2,12 7,16 4,5 10,7 17,7 10,0 17,-4 21,-9 2,5 9,9 17,9 6,0 11,-2 14,-4l0 -19c-1,0 -2,1 -4,1zm54 -7l0 27 26 0 0 -27 17 27 30 0 -25 -36 21 -32 -28 0 -15 24 0 -24 -26 0 0 24 -15 -24 -28 0 21 32 -24 36 29 0 17 -27zm111 1l-29 0 -12 46 23 0 18 -46zm77 28c11,0 21,-4 28,-10 7,-7 11,-16 11,-26 0,-10 -4,-19 -11,-26 -7,-6 -17,-10 -28,-10 -11,0 -20,4 -28,10 -7,7 -11,16 -11,26 0,10 4,19 11,26 8,6 17,10 28,10zm-8 -27c-3,-3 -4,-5 -4,-9 0,-4 1,-6 4,-9 4,-4 12,-4 16,0 3,3 4,5 4,9 0,4 -1,6 -4,9 -4,4 -12,4 -16,0l0 0zm90 5c-7,0 -12,-5 -12,-17 4,-3 8,-4 13,-4 6,0 10,4 10,10 0,6 -4,11 -11,11zm9 -42c-8,0 -17,4 -22,8 0,-5 3,-8 8,-10 3,-2 7,-3 11,-4 3,-1 9,-2 12,-2 3,0 9,-1 11,-1l0 -24c-11,2 -19,3 -24,5 -15,3 -26,9 -33,17 -6,7 -9,18 -9,31 0,13 3,24 9,32 7,8 16,12 29,12 10,0 19,-4 26,-10 7,-6 10,-15 10,-25 0,-18 -11,-29 -28,-29zm71 64c8,0 15,-2 21,-5l0 -22c-5,2 -10,3 -16,3 -9,0 -16,-4 -16,-12 0,-8 7,-12 16,-12 5,0 10,1 15,3l0 -23c-5,-2 -12,-4 -20,-4 -12,0 -24,5 -32,16 -4,5 -6,12 -6,20 0,8 2,14 6,20 4,5 9,10 14,12 6,2 12,4 18,4l0 0zm79 -2l28 0 0 -68 -65 0 0 16c-1,12 -1,19 -2,24 -1,4 -4,7 -7,7 -1,0 -3,-1 -4,-2l0 22c2,1 6,2 12,2 13,0 20,-7 23,-17 2,-7 3,-13 3,-21l0 -9 12 0 0 46zm57 27c14,0 24,-7 29,-20l29 -75 -28 0 -11 38 -12 -38 -29 0 27 66c-1,4 -4,6 -10,6 -4,0 -8,-2 -11,-4l0 24c3,2 9,3 16,3zm93 -73l29 0 0 -22 -57 0 0 68 28 0 0 -46zm73 48c11,0 21,-4 28,-10 7,-7 11,-16 11,-26 0,-10 -4,-19 -11,-26 -7,-6 -17,-10 -28,-10 -11,0 -21,4 -28,10 -7,7 -11,16 -11,26 0,10 4,19 11,26 7,6 17,10 28,10zm-8 -27c-3,-3 -4,-5 -4,-9 0,-4 1,-6 4,-9 4,-4 12,-4 16,0 3,3 4,5 4,9 0,4 -1,6 -4,9 -4,4 -12,4 -16,0l0 0zm83 -3l9 0c4,0 6,2 6,5 0,4 -2,6 -6,6l-9 0 0 -11zm7 -23c3,0 5,2 5,5 0,3 -2,5 -5,5l-7 0 0 -10 7 0zm22 15c5,-2 10,-8 10,-14 0,-10 -8,-18 -23,-18l-43 0 0 68 43 0c17,0 27,-7 27,-19 0,-9 -7,-15 -14,-17zm37 63c14,0 24,-7 29,-20l29 -75 -29 0 -10 38 -12 -38 -30 0 28 66c-1,4 -4,6 -10,6 -4,0 -8,-2 -12,-4l0 24c4,2 10,3 17,3zm91 -55l9 0c4,0 6,2 6,5 0,4 -2,6 -6,6l-9 0 0 -11zm7 -23c4,0 6,2 6,5 0,3 -2,5 -6,5l-7 0 0 -10 7 0zm23 15c5,-2 10,-8 10,-14 0,-10 -8,-18 -23,-18l-43 0 0 68 43 0c17,0 27,-7 27,-19 0,-9 -7,-15 -14,-17zm61 16c-1,3 -4,4 -7,4 -5,0 -8,-2 -8,-7 0,-4 4,-6 8,-6 3,0 5,1 7,2l0 7zm30 0c-2,0 -3,-1 -3,-3l0 -19c0,-8 -3,-15 -10,-20 -6,-5 -14,-8 -24,-8 -10,0 -19,2 -26,5l0 20c5,-2 12,-4 19,-4 9,0 14,4 14,10 -5,-2 -10,-3 -16,-3 -6,0 -12,1 -18,5 -5,4 -8,9 -8,16 0,7 2,12 7,16 4,5 10,7 18,7 9,0 16,-4 20,-9 2,5 9,9 18,9 5,0 10,-2 13,-4l0 -19c-1,0 -2,1 -4,1zm42 -4l15 0 0 24 28 0 0 -68 -28 0 0 22 -15 0 0 -22 -28 0 0 68 28 0 0 -24zm84 0l15 0 0 24 28 0 0 -68 -28 0 0 22 -15 0 0 -22 -28 0 0 68 28 0 0 -24zm89 -13c-4,0 -7,-3 -7,-6 0,-3 3,-5 7,-5l6 0 0 11 -6 0zm3 17l3 0 0 20 28 0 0 -68 -38 0c-10,0 -18,2 -22,7 -5,4 -7,10 -7,17 0,8 4,15 11,19l-18 25 31 0 12 -20zm114 -26l19 0 0 -22 -65 0 0 22 18 0 0 46 28 0 0 -46zm64 26c-1,3 -4,4 -8,4 -4,0 -7,-2 -7,-7 0,-4 4,-6 8,-6 3,0 5,1 7,2l0 7zm30 0c-2,0 -3,-1 -3,-3l0 -19c0,-8 -3,-15 -10,-20 -6,-5 -14,-8 -25,-8 -9,0 -18,2 -26,5l0 20c6,-2 13,-4 20,-4 9,0 14,4 14,10 -5,-2 -10,-3 -16,-3 -6,0 -13,1 -18,5 -5,4 -8,9 -8,16 0,7 2,12 7,16 4,5 10,7 18,7 9,0 16,-4 20,-9 2,5 9,9 17,9 6,0 11,-2 14,-4l0 -19c-1,0 -2,1 -4,1zm74 -22c2,-3 6,-5 11,-5 7,0 11,6 11,13 0,7 -4,13 -11,13 -5,0 -9,-2 -11,-5l0 -16zm1 34c4,7 10,10 18,10 9,0 16,-4 22,-10 6,-7 9,-16 9,-26 0,-10 -3,-19 -9,-26 -6,-6 -13,-10 -22,-10 -8,0 -14,3 -18,10l0 -8 -28 0 0 94 28 0 0 -34zm79 -33c1,-7 5,-10 10,-10 4,0 8,4 8,10l-18 0 0 0zm12 43c13,0 23,-2 29,-7l0 -20c-7,3 -14,5 -22,5 -8,0 -16,-3 -18,-8l43 0 0 -6c0,-11 -3,-20 -9,-26 -7,-7 -15,-10 -24,-10 -11,0 -20,4 -27,11 -6,6 -10,15 -10,25 0,11 4,20 12,26 7,7 16,10 26,10zm67 -34l10 15 11 0 10 -15 0 32 25 0 0 -68 -27 0 -14 21 -14 -21 -26 0 0 68 25 0 0 -32zm104 34c11,0 20,-4 28,-10 7,-7 11,-16 11,-26 0,-10 -4,-19 -11,-26 -8,-6 -17,-10 -28,-10 -12,0 -21,4 -28,10 -7,7 -11,16 -11,26 0,10 4,19 11,26 7,6 16,10 28,10zm-9 -27c-2,-3 -3,-5 -3,-9 0,-4 1,-6 3,-9 5,-4 13,-4 17,0 2,3 3,5 3,9 0,4 -1,6 -3,9 -4,4 -12,4 -17,0l0 0zm84 1l15 0 0 24 28 0 0 -68 -28 0 0 22 -15 0 0 -22 -27 0 0 68 27 0 0 -24zm98 -22l18 0 0 -22 -64 0 0 22 18 0 0 46 28 0 0 -46z"/>
  <path fill="#627A94" fill-rule="nonzero" d="M28 208l14 0 0 47 28 0 0 -68 -70 0 0 68 28 0 0 -47zm90 49c11,0 21,-4 28,-10 7,-7 11,-16 11,-26 0,-10 -4,-19 -11,-26 -7,-6 -17,-10 -28,-10 -11,0 -20,4 -28,10 -7,7 -11,16 -11,26 0,10 4,19 11,26 8,6 17,10 28,10zm-8 -27c-3,-3 -4,-6 -4,-9 0,-4 1,-7 4,-9 4,-5 12,-5 16,0 3,2 4,5 4,9 0,3 -1,6 -4,9 -4,4 -12,4 -16,0l0 0zm90 5c-7,0 -11,-5 -11,-17 3,-3 7,-4 12,-4 6,0 10,3 10,10 0,6 -4,11 -11,11zm9 -42c-8,0 -17,4 -22,8 0,-5 4,-8 8,-10 3,-2 7,-3 11,-4 3,-1 9,-2 12,-2 3,-1 9,-1 11,-1l0 -24c-11,2 -19,3 -24,5 -15,3 -26,9 -33,17 -6,7 -9,18 -9,31 0,13 3,24 9,32 7,8 16,12 29,12 10,0 19,-4 26,-10 7,-7 11,-15 11,-25 0,-18 -12,-29 -29,-29zm51 89c15,0 24,-7 30,-21l28 -74 -28 0 -11 38 -12 -38 -29 0 28 66c-2,4 -5,6 -11,6 -4,0 -8,-2 -11,-4l0 24c4,2 9,3 16,3zm109 -73l19 0 0 -22 -65 0 0 22 18 0 0 46 28 0 0 -46zm62 48c11,0 21,-4 28,-10 7,-7 11,-16 11,-26 0,-10 -4,-19 -11,-26 -7,-6 -17,-10 -28,-10 -11,0 -20,4 -28,10 -7,7 -11,16 -11,26 0,10 4,19 11,26 8,6 17,10 28,10zm-8 -27c-2,-3 -4,-6 -4,-9 0,-4 2,-7 4,-9 4,-5 12,-5 17,0 2,2 3,5 3,9 0,3 -1,6 -3,9 -5,4 -13,4 -17,0l0 0zm83 -3l9 0c4,0 6,2 6,5 0,4 -2,6 -6,6l-9 0 0 -11zm7 -23c3,0 5,2 5,5 0,3 -1,5 -5,5l-7 0 0 -10 7 0zm23 15c4,-2 9,-8 9,-14 0,-10 -8,-18 -23,-18l-43 0 0 68 44 0c17,0 27,-7 27,-19 0,-9 -7,-15 -14,-17zm57 38c12,0 21,-4 28,-10 8,-7 11,-16 11,-26 0,-10 -3,-19 -11,-26 -7,-6 -16,-10 -28,-10 -11,0 -20,4 -27,10 -8,7 -11,16 -11,26 0,10 3,19 11,26 7,6 16,10 27,10zm-8 -27c-2,-3 -3,-6 -3,-9 0,-4 1,-7 3,-9 5,-5 12,-5 17,0 2,2 3,5 3,9 0,3 -1,6 -3,9 -4,4 -13,4 -17,0l0 0zm85 -43l-28 0 0 68 28 0 0 -68zm-30 -6c8,0 14,-5 14,-13 0,-7 -6,-13 -14,-13 -3,0 -6,2 -9,4 -2,3 -4,6 -4,9 0,8 6,13 13,13zm18 -13c0,8 6,13 13,13 8,0 13,-5 13,-13 0,-3 -1,-6 -3,-9 -3,-2 -6,-4 -10,-4 -7,0 -13,6 -13,13zm96 41l18 0 0 -22 -64 0 0 22 18 0 0 46 28 0 0 -46zm49 5c1,-7 4,-10 9,-10 5,0 9,3 9,10l-18 0 0 0zm12 43c13,0 22,-3 28,-7l0 -20c-6,3 -14,5 -22,5 -8,0 -15,-3 -18,-8l44 0 0 -7c0,-10 -3,-19 -10,-25 -6,-7 -14,-10 -23,-10 -11,0 -20,4 -27,10 -7,7 -10,16 -10,26 0,11 4,20 11,26 8,7 16,10 27,10zm56 -37l-23 35 30 0 9 -17 10 17 30 0 -23 -35 22 -33 -30 0 -8 16 -9 -16 -30 0 22 33zm91 11l15 0 0 24 28 0 0 -68 -28 0 0 22 -15 0 0 -22 -28 0 0 68 28 0 0 -24zm70 -47c9,0 16,-7 16,-16 0,-4 -2,-8 -5,-11 -3,-3 -6,-5 -11,-5 -4,0 -8,2 -11,5 -3,3 -4,7 -4,11 0,4 1,8 4,11 3,3 7,5 11,5zm14 3l-28 0 0 68 28 0 0 -68zm42 40l19 28 34 0 -28 -38 24 -30 -32 0 -17 24 0 -24 -28 0 0 68 28 0 0 -28zm105 -1l0 29 26 0 0 -68 -26 0 -21 29 0 -29 -26 0 0 68 27 0 20 -29zm71 3l-29 0 -12 46 23 0 18 -46zm70 -21l14 0 0 47 28 0 0 -68 -70 0 0 68 28 0 0 -47zm83 5c2,-3 5,-5 10,-5 7,0 11,6 11,13 0,7 -4,13 -11,13 -5,0 -8,-2 -10,-5l0 -16zm0 34c4,7 10,10 19,10 8,0 15,-4 21,-10 6,-7 9,-16 9,-26 0,-10 -3,-19 -9,-26 -6,-6 -13,-10 -21,-10 -9,0 -15,3 -19,9l0 -7 -28 0 0 94 28 0 0 -34zm92 10c12,0 21,-4 28,-10 8,-7 11,-16 11,-26 0,-10 -3,-19 -11,-26 -7,-6 -16,-10 -28,-10 -11,0 -20,4 -27,10 -8,7 -11,16 -11,26 0,10 3,19 11,26 7,6 16,10 27,10zm-8 -27c-2,-3 -3,-6 -3,-9 0,-4 1,-7 3,-9 4,-5 12,-5 17,0 2,2 3,5 3,9 0,3 -1,6 -3,9 -4,4 -13,4 -17,0l0 0zm86 3c2,-6 3,-15 3,-25l13 0 0 25 -16 0 0 0zm-9 22l35 0 0 14 27 0 0 -36 -10 0 0 -46 -64 0 0 17c-1,14 -3,24 -6,29l-8 0 0 36 26 0 0 -14zm109 -20c-2,3 -4,4 -8,4 -4,0 -7,-2 -7,-7 0,-4 3,-6 8,-6 3,0 5,1 7,2l0 7zm30 0c-2,0 -3,-1 -3,-4l0 -18c0,-8 -3,-15 -10,-20 -6,-5 -14,-8 -25,-8 -10,0 -18,2 -26,5l0 20c6,-3 12,-4 20,-4 9,0 13,3 13,10 -4,-2 -9,-4 -15,-4 -7,0 -13,2 -18,6 -5,3 -8,9 -8,16 0,7 2,12 6,16 5,5 11,7 18,7 9,0 17,-4 21,-9 2,5 9,9 17,9 6,0 11,-2 14,-4l0 -20c-1,1 -2,2 -4,2zm54 -7l0 27 26 0 0 -27 17 27 29 0 -24 -36 21 -32 -28 0 -15 24 0 -24 -26 0 0 24 -15 -24 -28 0 21 32 -24 36 29 0 17 -27z"/>
  <path fill="#627A94" fill-rule="nonzero" d="M28 387l19 28 34 0 -28 -38 24 -30 -32 0 -17 24 0 -24 -28 0 0 68 28 0 0 -28zm89 29c11,0 21,-3 28,-10 7,-6 11,-15 11,-25 0,-11 -4,-19 -11,-26 -7,-7 -17,-10 -28,-10 -11,0 -20,3 -28,10 -7,7 -11,15 -11,26 0,10 4,19 11,25 8,7 17,10 28,10zm-8 -26c-3,-3 -4,-6 -4,-9 0,-4 2,-7 4,-9 4,-5 12,-5 17,0 2,2 3,5 3,9 0,3 -1,6 -3,9 -5,4 -13,4 -17,0l0 0zm81 -8l10 15 11 0 10 -14 0 32 25 0 0 -68 -26 0 -15 21 -14 -21 -26 0 0 68 25 0 0 -33zm97 -14l14 0 0 47 28 0 0 -68 -70 0 0 68 28 0 0 -47zm102 47l27 0 0 -68 -65 0 0 16c0,11 -1,19 -2,24 -1,4 -3,6 -7,6 -1,0 -2,0 -4,-1l0 22c3,1 7,2 13,2 12,0 19,-7 22,-17 3,-7 3,-13 3,-21l1 -10 12 0 0 47zm62 -41c1,-7 5,-10 10,-10 5,0 8,3 9,10l-19 0 0 0zm13 42c12,0 22,-2 28,-6l0 -20c-7,3 -14,5 -22,5 -8,0 -16,-3 -18,-8l43 0 0 -7c0,-10 -3,-19 -9,-25 -7,-7 -15,-10 -24,-10 -11,0 -20,3 -26,10 -7,7 -10,16 -10,26 0,11 3,20 11,26 7,6 16,9 27,9zm69 -29l19 28 34 0 -29 -38 25 -30 -32 0 -17 24 0 -24 -28 0 0 68 28 0 0 -28zm100 -18l18 0 0 -22 -64 0 0 22 18 0 0 46 28 0 0 -46zm46 73c14,0 24,-7 29,-21l29 -74 -29 0 -11 38 -12 -38 -29 0 28 66c-2,4 -5,5 -10,5 -5,0 -8,-1 -12,-3l0 24c4,2 10,3 17,3zm132 -49c-13,1 -13,-25 0,-24 12,-1 12,25 0,24zm0 23c11,0 19,-3 26,-10 7,-7 10,-15 10,-25 0,-10 -3,-19 -10,-26 -7,-7 -15,-10 -26,-10 -17,0 -30,10 -35,24l-6 0 0 -22 -27 0 0 68 27 0 0 -25 5 0c2,8 7,14 13,19 6,5 14,7 23,7zm110 -69l-27 0 0 27c-2,1 -4,1 -6,1 -4,0 -7,-2 -7,-6l0 -22 -28 0 0 25c0,10 4,17 11,20 6,4 12,5 20,5 4,0 7,0 10,-1l0 19 27 0 0 -68zm60 39l0 29 26 0 0 -68 -26 0 -20 29 0 -29 -26 0 0 68 26 0 20 -29zm56 -6l-24 35 30 0 10 -17 10 17 30 0 -24 -35 23 -33 -30 0 -9 16 -8 -16 -30 0 22 33zm133 -11l19 0 0 -22 -65 0 0 22 18 0 0 46 28 0 0 -46zm64 26c-1,3 -4,4 -8,4 -4,0 -7,-2 -7,-7 0,-4 4,-6 8,-6 3,0 5,0 7,2l0 7zm30 0c-2,0 -3,-2 -3,-4l0 -18c0,-8 -3,-15 -10,-20 -6,-5 -14,-8 -25,-8 -9,0 -18,1 -26,4l0 21c6,-3 13,-4 20,-4 9,0 14,3 14,10 -5,-2 -10,-4 -16,-4 -6,0 -13,2 -18,6 -5,3 -8,9 -8,16 0,6 2,12 7,16 4,4 10,6 18,6 9,0 16,-3 20,-8 2,4 9,8 17,8 6,0 11,-1 14,-4l0 -19c-1,1 -2,2 -4,2zm73 21c11,0 20,-2 26,-6 6,-4 10,-10 10,-16 0,-4 -2,-8 -5,-11 -3,-2 -6,-4 -9,-5 6,-1 12,-6 12,-14 0,-5 -3,-10 -9,-14 -6,-3 -13,-5 -22,-5 -12,0 -22,2 -29,6l0 19c6,-3 13,-4 22,-4 6,0 9,1 9,3 0,2 -1,3 -5,3l-14 0 0 17 14 0c4,0 7,1 7,3 0,3 -4,4 -11,4 -9,0 -17,-2 -24,-6l0 21c6,4 16,5 28,5zm83 -21c-2,3 -4,4 -8,4 -4,0 -7,-2 -7,-7 0,-4 3,-6 8,-6 3,0 5,0 7,2l0 7zm30 0c-2,0 -3,-2 -3,-4l0 -18c0,-8 -3,-15 -10,-20 -6,-5 -14,-8 -25,-8 -10,0 -18,1 -26,4l0 21c6,-3 13,-4 20,-4 9,0 14,3 14,10 -5,-2 -10,-4 -16,-4 -7,0 -13,2 -18,6 -5,3 -8,9 -8,16 0,6 2,12 7,16 4,4 10,6 17,6 10,0 17,-3 21,-8 2,4 9,8 17,8 6,0 11,-1 14,-4l0 -19c-1,1 -2,2 -4,2zm42 -27l14 0 0 47 28 0 0 -68 -70 0 0 68 28 0 0 -47zm121 -21l-28 0 0 27c-2,1 -4,1 -6,1 -4,0 -7,-2 -7,-6l0 -22 -28 0 0 25c0,10 5,17 11,20 6,4 13,5 20,5 4,0 7,0 10,-1l0 19 28 0 0 -68zm49 48c-1,3 -4,4 -7,4 -5,0 -8,-2 -8,-7 0,-4 4,-6 8,-6 3,0 5,0 7,2l0 7zm31 0c-3,0 -4,-2 -4,-4l0 -18c0,-8 -3,-15 -9,-20 -7,-5 -15,-8 -25,-8 -10,0 -19,1 -26,4l0 21c5,-3 12,-4 19,-4 9,0 14,3 14,10 -5,-2 -10,-4 -16,-4 -6,0 -12,2 -18,6 -5,3 -8,9 -8,16 0,6 3,12 7,16 4,4 10,6 18,6 9,0 16,-3 20,-8 2,4 10,8 18,8 5,0 10,-1 13,-4l0 -19c-1,1 -2,2 -3,2zm47 21c7,0 14,-1 21,-4l0 -22c-5,2 -10,3 -16,3 -9,0 -16,-4 -16,-12 0,-8 7,-12 16,-12 5,0 10,1 15,3l0 -23c-5,-3 -12,-4 -20,-4 -12,0 -24,5 -32,16 -4,5 -6,12 -6,20 0,7 2,14 6,20 4,5 9,9 14,12 6,2 12,3 18,3l0 0zm75 -47l18 0 0 -22 -65 0 0 22 19 0 0 46 28 0 0 -46zm73 17l0 29 26 0 0 -68 -26 0 -20 29 0 -29 -26 0 0 68 26 0 20 -29zm67 5l15 0 0 24 28 0 0 -68 -28 0 0 22 -15 0 0 -22 -28 0 0 68 28 0 0 -24zm68 -7c-4,0 -8,2 -11,5 -3,3 -5,7 -5,11 0,5 2,9 5,12 3,3 7,5 11,5 5,0 9,-2 12,-5 3,-3 5,-7 5,-12 0,-4 -2,-8 -5,-11 -3,-3 -7,-5 -12,-5z"/>
 </g>
</svg>
