<?xml version="1.0" encoding="UTF-8"?>
<!DOCTYPE svg PUBLIC "-//W3C//DTD SVG 1.1//EN" "http://www.w3.org/Graphics/SVG/1.1/DTD/svg11.dtd">
<!-- Creator: CorelDRAW X7 -->
<svg xmlns="http://www.w3.org/2000/svg" xml:space="preserve" width="400px" height="111px" version="1.1" shape-rendering="geometricPrecision" text-rendering="geometricPrecision" image-rendering="optimizeQuality" fill-rule="evenodd" clip-rule="evenodd"
viewBox="0 0 88 24"
 xmlns:xlink="http://www.w3.org/1999/xlink">
 <g id="Слой_x0020_1">
  <metadata id="CorelCorpID_0Corel-Layer"/>
  <path fill="#F35841" fill-rule="nonzero" d="M4 0c-3,0 -4,2 -4,5 0,2 1,4 4,4 2,0 3,-1 3,-4 0,-3 -1,-5 -3,-5zm-2 5c0,-3 1,-4 2,-4 0,0 1,1 1,4 0,1 0,3 -1,3 -1,0 -2,0 -2,-3zm7 -5l0 5c0,0 1,-1 1,-1 1,0 2,0 2,2 0,1 0,2 -2,2 0,0 -1,0 -2,-1l1 2c0,0 1,0 2,0 2,0 4,-1 4,-3 0,-2 -1,-3 -3,-3 0,0 -1,0 -1,0l0 -1c0,0 1,0 1,0 1,0 2,0 2,0l0 -2 -5 0zm11 0c-3,0 -4,2 -4,5 0,2 1,4 4,4 2,0 3,-1 3,-4 0,-3 -1,-5 -3,-5zm-2 5c0,-3 1,-4 2,-4 0,0 1,1 1,4 0,1 0,3 -1,3 -1,0 -2,0 -2,-3zm10 -5l-1 2c1,0 2,0 3,0 0,0 1,0 1,0l-3 7 4 0c-1,0 -1,-1 -1,-1 0,0 0,0 0,0l3 -8 -6 0zm8 0l0 5c0,0 1,-1 1,-1 1,0 2,0 2,2 0,1 0,2 -2,2 0,0 -1,0 -2,-1l1 2c0,0 1,0 2,0 2,0 4,-1 4,-3 0,-2 -1,-3 -3,-3 0,0 -1,0 -1,0l0 -1c0,0 1,0 1,0 1,0 2,0 2,0l0 -2 -5 0zm8 2c0,0 1,-1 2,-1 1,0 1,1 1,1 0,0 0,1 -1,2l-3 5 7 0 0 -2c-1,1 -1,1 -2,1 -1,0 -1,0 -1,0l1 -3c1,-1 1,-2 1,-3 0,-1 -1,-2 -2,-2 -1,0 -2,0 -3,0l0 2zm11 0c0,-1 1,-1 2,-1 0,0 1,0 1,1 0,1 -1,2 -2,2l0 0 0 1 0 0c1,0 2,0 2,1 0,1 0,2 -2,2 0,0 -1,0 -2,0l1 1c0,0 1,0 2,0 2,0 4,-1 4,-3 0,-1 -1,-2 -2,-2l0 0c1,0 1,-1 1,-2 0,-1 -1,-2 -3,-2 0,0 -1,0 -2,0l0 2zm11 -2c-3,0 -4,2 -4,5 0,2 1,4 4,4 2,0 3,-1 3,-4 0,-3 -1,-5 -3,-5zm-2 5c0,-3 1,-4 2,-4 0,0 1,1 1,4 0,1 0,3 -1,3 -1,0 -2,0 -2,-3zm10 -5l-1 2c1,0 2,0 3,0 0,0 1,0 1,0l-3 7 4 0c-1,0 -1,-1 -1,-1 0,0 0,0 0,0l3 -8 -6 0zm13 0c-3,0 -6,3 -6,5 0,2 1,4 4,4 2,0 3,-1 3,-3 0,-2 -1,-3 -3,-3 0,0 0,0 0,0l-1 2c0,-1 0,-1 1,-1 1,0 1,1 1,2 0,2 -1,2 -1,2 -1,0 -1,0 -1,-2 0,-3 1,-5 3,-5l0 -1z"/>
  <path fill="#F35841" fill-rule="nonzero" d="M4 15c-3,0 -4,2 -4,5 0,2 1,4 4,4 2,0 3,-1 3,-4 0,-3 -1,-5 -3,-5zm-2 5c0,-3 1,-3 2,-3 0,0 1,0 1,3 0,1 0,3 -1,3 -1,0 -2,0 -2,-3zm7 4c4,1 6,-2 6,-5 0,-2 -1,-4 -3,-4 -3,0 -4,2 -4,3 0,2 1,3 3,3 0,0 0,0 1,0l0 -1c0,0 0,0 0,0 -1,0 -2,-1 -2,-2 0,-1 1,-1 2,-1 0,0 1,0 1,2 0,3 -2,4 -4,4l0 1zm8 0c4,1 6,-2 6,-5 0,-2 -1,-4 -3,-4 -3,0 -4,2 -4,3 0,2 1,3 3,3 0,0 0,0 1,0l0 -1c0,0 0,0 0,0 -1,0 -1,-1 -1,-2 0,-1 0,-1 1,-1 0,0 1,0 1,2 0,3 -2,4 -4,4l0 1zm11 -9l-1 2c1,0 2,0 3,0 0,0 1,0 1,0l-3 7 4 0c-1,0 -1,0 -1,-1 0,0 0,0 0,0l3 -8 -6 0zm8 2c0,0 1,0 2,0 1,0 1,0 1,0 0,1 0,1 -1,2l-3 5 6 0 1 -2c-1,1 -1,1 -2,1 -1,0 -1,0 -1,0l1 -3c1,-1 1,-2 1,-3 0,-1 -1,-2 -2,-2 -1,0 -2,0 -3,1l0 1zm10 -2l-3 7 4 0 0 1c0,1 0,1 -1,1l3 0c0,0 0,0 0,-1l0 -1 1 0 1 -1c-1,0 -1,0 -2,0l0 0 0 -6 -3 0zm1 2l0 4 -2 0 2 -4zm8 -2l0 5c0,0 1,0 1,0 1,0 2,0 2,1 0,2 0,2 -2,2 0,0 -1,0 -2,0l1 1c0,0 1,0 2,0 2,0 4,-1 4,-3 0,-2 -1,-3 -3,-3 0,0 -1,0 -1,1l0 -2c0,0 1,0 1,0 1,0 2,0 2,0l0 -2 -5 0zm8 0l-1 2c1,0 2,0 3,0 0,0 1,0 1,0l-3 7 4 0c-1,0 -1,0 -1,-1 0,0 0,0 0,0l3 -8 -6 0zm13 0l-3 7 4 0 0 1c0,1 0,1 -1,1l3 0c0,0 0,0 0,-1l0 -1 1 0 1 -1c-1,0 -1,0 -2,0l0 0 0 -6 -3 0zm1 2l0 4 -2 0 2 -4zm5 -2l-1 2c1,0 2,0 3,0 0,0 1,0 1,0l-3 7 4 0c-1,0 -1,0 -1,-1 0,0 0,0 0,0l3 -8 -6 0z"/>
 </g>
</svg>
