<?xml version="1.0" encoding="UTF-8"?>
<!DOCTYPE svg PUBLIC "-//W3C//DTD SVG 1.1//EN" "http://www.w3.org/Graphics/SVG/1.1/DTD/svg11.dtd">
<!-- Creator: CorelDRAW X7 -->
<svg xmlns="http://www.w3.org/2000/svg" xml:space="preserve" width="274px" height="274px" version="1.1" shape-rendering="geometricPrecision" text-rendering="geometricPrecision" image-rendering="optimizeQuality" fill-rule="evenodd" clip-rule="evenodd"
viewBox="0 0 40 40"
 xmlns:xlink="http://www.w3.org/1999/xlink">
 <g id="Слой_x0020_1">
  <metadata id="CorelCorpID_0Corel-Layer"/>
  <path fill="white" d="M0 21c0,-11 8,-20 19,-21 11,-1 20,8 21,19 0,11 -9,20 -19,21 -11,0 -21,-9 -21,-19z"/>
  <path fill="#263C60" d="M17 35c-1,4 -6,2 -5,-1 0,-1 1,-2 3,-2 1,1 2,2 2,3zm2 3c0,0 -1,-4 -1,-4 1,-1 2,-1 2,-1 4,0 4,6 -1,5zm8 -7c0,0 1,0 1,0 0,0 1,2 1,3 1,2 -2,4 -4,2 0,-1 -1,-3 -1,-3 0,0 1,0 1,-1 1,1 1,4 3,3 1,0 -1,-3 -1,-4zm-19 0c1,0 1,0 2,0 1,-1 1,-1 2,0 -1,0 -4,3 -4,3 0,0 0,0 0,-1 0,0 1,0 1,-1 -2,0 -1,0 -2,0l0 -2c-1,0 -1,1 -1,1 -1,0 -1,0 -1,0 0,-1 0,-1 1,-1 0,-1 2,-2 2,-3 1,1 0,2 0,4zm23 2c0,-1 0,-1 1,-1 0,0 0,0 0,0 1,0 2,-1 1,-2 0,0 -1,1 -2,1 -1,1 -1,0 -2,0 0,-2 2,-4 3,-3 0,1 0,1 -1,1 0,0 -1,1 0,1 0,1 1,-1 2,-1 3,1 1,5 -2,4zm2 -7l0 -2c1,0 2,-1 2,-1 0,0 1,1 2,1 0,2 0,2 -1,2 -1,1 -1,1 -2,0 -1,0 0,0 -1,0zm-30 -2c1,0 2,-1 2,-1 0,0 1,1 2,1l0 2c-1,0 -2,1 -2,1 0,0 -1,-1 -2,-1l0 -2zm29 -3c0,6 -6,12 -13,11 -7,0 -12,-6 -12,-13 1,-7 7,-12 14,-12 6,1 12,7 11,14zm-27 0c-1,0 -1,0 -1,-1 0,-1 0,-2 0,-2 1,-1 1,-2 1,-3 1,-1 1,-2 2,-3 2,-4 7,-8 13,-8 8,0 14,6 15,14 0,0 0,1 0,2 0,1 1,1 0,1 0,0 0,-1 0,-1 0,-1 0,-2 0,-2 0,-1 -1,-2 -1,-3 -4,-10 -16,-13 -24,-6 -1,0 -2,2 -3,3 -1,2 -2,5 -2,7 0,1 0,2 0,2zm-2 0c0,0 0,0 0,-1 0,-4 2,-9 5,-11 0,-1 0,-1 0,-1 1,-1 1,-1 2,-1 1,-1 2,-2 3,-2 2,-1 4,-2 7,-2 4,0 8,2 11,4 0,1 1,1 1,1 1,2 3,4 3,6 1,2 2,4 2,7 0,0 0,0 -1,0 0,0 0,-1 0,-1 0,-9 -7,-16 -16,-16 -8,0 -15,5 -16,13 0,2 0,4 -1,4zm-3 0c0,10 10,19 21,19 10,-1 19,-10 19,-21 -1,-11 -10,-20 -21,-19 -11,1 -19,10 -19,21z"/>
  <path fill="#FEFEFE" d="M19 23c0,0 0,0 0,-1 1,1 1,1 1,1 0,0 0,0 1,1 0,0 0,0 1,1 0,0 2,1 2,2 0,0 -1,2 -4,-2 0,0 -1,-1 -1,-1 0,0 0,0 0,0l2 2c0,0 1,1 2,1 0,0 0,0 -1,-1 -1,0 -1,0 -1,-1 0,0 -1,0 -1,0 -1,-1 -1,-1 -1,-2zm-3 -5c0,0 2,1 2,1 0,0 0,0 0,0 0,1 0,1 1,1 1,0 1,-2 2,-1 0,0 -1,1 -1,2l-4 5c0,0 0,0 0,0 -1,0 -1,0 -1,1 1,-1 5,-6 6,-7 0,-1 0,-1 0,-1 0,1 -1,2 -1,2l-3 5c-1,0 -2,2 -3,1 -1,0 -1,-1 0,-2l3 -3c0,0 1,0 0,-1 0,0 0,-1 0,-1 0,-1 -1,-1 -1,-1l0 -1zm6 0c1,0 3,1 4,3 1,0 2,2 2,2 0,1 -1,1 -1,1 -1,0 -1,-3 -5,-5 -3,-2 -3,0 -3,-2 0,0 0,0 -1,-1 0,0 0,0 0,0 0,0 0,0 0,0 1,-1 1,1 2,1 0,0 0,0 1,0 1,0 0,0 1,-1l2 -1c0,-1 0,-1 0,-1 0,1 -1,3 -2,4zm-7 -4c-1,0 -1,0 -1,0 -1,-1 -1,-1 -1,-1l0 -1c1,0 3,2 4,2 0,0 1,1 1,2 0,1 0,1 0,2 -1,1 -1,0 -2,0 -2,0 -3,-1 -3,-3 -1,-1 -1,-1 -1,-2 1,0 1,1 1,1 1,1 1,1 1,1 0,1 1,0 1,1 1,0 1,0 1,1 0,-1 0,-1 0,-2 -1,0 -1,0 -1,-1zm9 0c0,-1 0,-1 0,-1 1,0 1,0 1,0 0,-1 0,-1 1,-1 0,1 0,1 0,1l-1 1c0,0 0,0 0,0 0,0 -1,0 -1,0zm8 7c1,-7 -5,-13 -11,-14 -7,0 -13,5 -14,12 0,7 5,13 12,13 7,1 13,-5 13,-11z"/>
  <path fill="#FEFEFE" d="M3 21c1,0 1,-2 1,-4 1,-8 8,-13 16,-13 9,0 16,7 16,16 0,0 0,1 0,1 1,0 1,0 1,0 0,-3 -1,-5 -2,-7 0,-2 -2,-4 -3,-6 0,0 -1,0 -1,-1 -3,-2 -7,-4 -11,-4 -3,0 -5,1 -7,2 -1,0 -2,1 -3,2 -1,0 -1,0 -2,1 0,0 0,0 0,1 -3,2 -5,7 -5,11 0,1 0,1 0,1z"/>
  <path fill="#FDFDFE" d="M5 21c0,0 0,-1 0,-2 0,-2 1,-5 2,-7 1,-1 2,-3 3,-3 8,-7 20,-4 24,6 0,1 1,2 1,3 0,0 0,1 0,2 0,0 0,1 0,1 1,0 0,0 0,-1 0,-1 0,-2 0,-2 -1,-8 -7,-14 -15,-14 -6,0 -11,4 -13,8 -1,1 -1,2 -2,3 0,1 0,2 -1,3 0,0 0,1 0,2 0,1 0,1 1,1z"/>
  <path fill="#E64E35" d="M18 19c0,0 0,0 0,0 0,0 -2,-1 -2,-1l0 1c0,0 1,0 1,1 0,0 0,1 0,1 1,1 0,1 0,1l-3 3c-1,1 -1,2 0,2 1,1 2,-1 3,-1l3 -5c0,0 1,-1 1,-2 0,0 0,0 0,1 -1,1 -5,6 -6,7 0,-1 0,-1 1,-1 0,0 0,0 0,0l4 -5c0,-1 1,-2 1,-2 -1,-1 -1,1 -2,1 -1,0 -1,0 -1,-1z"/>
  <path fill="#E7563D" d="M22 18c1,-1 2,-3 2,-4 0,0 0,0 0,1l-2 1c-1,1 0,1 -1,1 -1,0 -1,0 -1,0 -1,0 -1,-2 -2,-1 0,0 0,0 0,0 0,0 0,0 0,0 1,1 1,1 1,1 0,2 0,0 3,2 4,2 4,5 5,5 0,0 1,0 1,-1 0,0 -1,-2 -2,-2 -1,-2 -3,-3 -4,-3z"/>
  <path fill="#E64D33" d="M13 13c0,0 0,0 1,1 0,0 0,0 1,0 0,1 0,1 1,1 0,1 0,1 0,2 0,-1 0,-1 -1,-1 0,-1 -1,0 -1,-1 0,0 0,0 -1,-1 0,0 0,-1 -1,-1 0,1 0,1 1,2 0,2 1,3 3,3 1,0 1,1 2,0 0,-1 0,-1 0,-2 0,-1 -1,-2 -1,-2 -1,0 -3,-2 -4,-2l0 1z"/>
  <path fill="#FEFEFE" d="M8 31c0,-2 1,-3 0,-4 0,1 -2,2 -2,3 -1,0 -1,0 -1,1 0,0 0,0 1,0 0,0 0,-1 1,-1l0 2c1,0 0,0 2,0 0,1 -1,1 -1,1 0,1 0,1 0,1 0,0 3,-3 4,-3 -1,-1 -1,-1 -2,0 -1,0 -1,0 -2,0z"/>
  <path fill="#FEFEFE" d="M20 35c1,-1 3,1 2,2 -1,0 -2,0 -2,0 0,0 0,-2 0,-2zm-1 3c5,1 5,-5 1,-5 0,0 -1,0 -2,1 0,0 1,4 1,4z"/>
  <path fill="#FEFEFE" d="M14 33c2,0 2,3 0,3 -1,1 -2,-2 0,-3zm3 2c0,-1 -1,-2 -2,-3 -2,0 -3,1 -3,2 -1,3 4,5 5,1z"/>
  <path fill="#FEFEFE" d="M31 33c3,1 5,-3 2,-4 -1,0 -2,2 -2,1 -1,0 0,-1 0,-1 1,0 1,0 1,-1 -1,-1 -3,1 -3,3 1,0 1,1 2,0 1,0 2,-1 2,-1 1,1 0,2 -1,2 0,0 0,0 0,0 -1,0 -1,0 -1,1z"/>
  <path fill="#FEFEFE" d="M24 33c0,0 1,2 1,3 2,2 5,0 4,-2 0,-1 -1,-3 -1,-3 0,0 -1,0 -1,0 0,1 2,4 1,4 -2,1 -2,-2 -3,-3 0,1 -1,1 -1,1z"/>
  <path fill="#E64D33" d="M24 27c0,-1 -2,-2 -2,-2 -1,-1 -1,-1 -1,-1 -1,-1 -1,-1 -1,-1 0,0 0,0 -1,-1 0,1 0,1 0,1 0,1 0,1 1,2 0,0 1,0 1,0 0,1 0,1 1,1 1,1 1,1 1,1 -1,0 -2,-1 -2,-1l-2 -2c0,0 0,0 0,0 0,0 1,1 1,1 3,4 4,2 4,2z"/>
  <path fill="#FEFEFE" d="M34 24c0,0 1,0 1,0 1,0 1,0 1,1 0,0 -1,1 -1,1 0,0 0,-1 -1,-1l0 -1zm-1 2c1,0 0,0 1,0 1,1 1,1 2,0 1,0 1,0 1,-2 -1,0 -2,-1 -2,-1 0,0 -1,1 -2,1l0 2z"/>
  <path fill="#FEFEFE" d="M5 24l1 0 0 1c0,1 -1,1 -1,1 -1,0 -1,-1 -1,-2l1 0zm-2 2c1,0 2,1 2,1 0,0 1,-1 2,-1l0 -2c-1,0 -2,-1 -2,-1 0,0 -1,1 -2,1l0 2z"/>
  <path fill="#263C60" d="M14 33c-2,1 -1,4 0,3 2,0 2,-3 0,-3z"/>
  <path fill="#263C60" d="M20 35c0,0 0,2 0,2 0,0 1,0 2,0 1,-1 -1,-3 -2,-2z"/>
  <path fill="#263C60" d="M34 25c1,0 1,1 1,1 0,0 1,-1 1,-1 0,-1 0,-1 -1,-1 0,0 -1,0 -1,0l0 1z"/>
  <path fill="#263C60" d="M4 24c0,1 0,2 1,2 0,0 1,0 1,-1l0 -1 -1 0 -1 0z"/>
  <path fill="#E64D33" d="M24 14c0,0 1,0 1,0 0,0 0,0 0,0l1 -1c0,0 0,0 0,-1 -1,0 -1,0 -1,1 0,0 0,0 -1,0 0,0 0,0 0,1z"/>
 </g>
</svg>
